<svg width="24" height="24" viewBox="0 0 24 24" fill="none" xmlns="http://www.w3.org/2000/svg">
<path d="M22.3997 4.80149C21.5172 4.80149 20.7997 5.5191 20.7997 6.40148C20.7997 7.28386 21.5173 8.00147 22.3997 8.00147C23.282 8.00147 23.9997 7.2839 23.9997 6.40148C23.9997 5.5191 23.282 4.80149 22.3997 4.80149ZM22.3997 7.2015C21.9585 7.2015 21.5997 6.84271 21.5997 6.40148C21.5997 5.96029 21.9584 5.60146 22.3997 5.60146C22.8409 5.60146 23.1997 5.96024 23.1997 6.40148C23.1996 6.84271 22.8409 7.2015 22.3997 7.2015Z" fill="#61676F"/>
<path d="M1.59998 18C0.717609 18 0 18.7176 0 19.6C0 20.4824 0.717609 21.2 1.59998 21.2C2.48241 21.2 3.19997 20.4824 3.19997 19.6C3.19997 18.7176 2.48241 18 1.59998 18ZM1.59998 20.4C1.1588 20.4 0.799969 20.0412 0.799969 19.6C0.799969 19.1587 1.15875 18.8 1.59998 18.8C2.04117 18.8 2.4 19.1587 2.4 19.6C2.4 20.0412 2.04122 20.4 1.59998 20.4Z" fill="#61676F"/>
<path d="M21.6241 5.30436L18.1733 3.63837C17.9741 3.54194 17.7353 3.62594 17.6393 3.82479C17.5433 4.02359 17.6269 4.26279 17.8258 4.35879L21.2765 6.02478C21.3326 6.05197 21.3918 6.06476 21.4501 6.06476C21.5989 6.06476 21.7417 5.98156 21.8105 5.83836C21.9065 5.63956 21.8229 5.40036 21.6241 5.30436Z" fill="#61676F"/>
<path d="M17.9998 20.7987C17.1174 20.7987 16.3998 21.5163 16.3998 22.3987C16.3998 23.2811 17.1174 23.9987 17.9998 23.9987C18.8822 23.9987 19.5998 23.2811 19.5998 22.3987C19.5998 21.5163 18.8822 20.7987 17.9998 20.7987ZM17.9998 23.1987C17.5586 23.1987 17.1998 22.8399 17.1998 22.3987C17.1998 21.9574 17.5586 21.5987 17.9998 21.5987C18.441 21.5987 18.7998 21.9575 18.7998 22.3987C18.7998 22.84 18.441 23.1987 17.9998 23.1987Z" fill="#61676F"/>
<path d="M17.2243 21.305L13.7735 19.639C13.5743 19.5425 13.3355 19.6262 13.2395 19.8254C13.1435 20.0242 13.2271 20.2634 13.4259 20.3594L16.8767 22.0254C16.9327 22.0526 16.9919 22.0654 17.0503 22.0654C17.1991 22.0654 17.3419 21.9822 17.4107 21.839C17.5067 21.6401 17.4231 21.401 17.2243 21.305Z" fill="#61676F"/>
<path d="M11.9998 10.8015C11.1174 10.8015 10.3998 11.5191 10.3998 12.4015C10.3998 13.2839 11.1175 14.0015 11.9998 14.0015C12.8822 14.0015 13.5998 13.2838 13.5998 12.4015C13.5998 11.5191 12.8822 10.8015 11.9998 10.8015ZM11.9998 13.2015C11.5586 13.2015 11.1998 12.8427 11.1998 12.4015C11.1998 11.9603 11.5586 11.6015 11.9998 11.6015C12.441 11.6015 12.7998 11.9602 12.7998 12.4015C12.7998 12.8427 12.441 13.2015 11.9998 13.2015Z" fill="#61676F"/>
<path d="M11.2972 11.3487L8.64638 9.28272C8.47196 9.14791 8.2208 9.17791 8.08477 9.35233C7.94916 9.52675 7.97996 9.7779 8.15438 9.91393L10.8052 11.9799C10.8784 12.0368 10.9648 12.0644 11.0508 12.0644C11.17 12.0644 11.2876 12.0116 11.3668 11.9104C11.5024 11.7359 11.4716 11.4847 11.2972 11.3487Z" fill="#61676F"/>
<path d="M19.1996 10.3998C16.7736 10.3998 14.7996 12.3738 14.7996 14.7999C14.7996 17.2259 16.7736 19.1999 19.1996 19.1999C21.6256 19.1999 23.5996 17.2259 23.5996 14.7999C23.5996 12.3738 21.6256 10.3998 19.1996 10.3998ZM19.1996 18.3998C17.2144 18.3998 15.5996 16.785 15.5996 14.7998C15.5996 12.8146 17.2144 11.1998 19.1996 11.1998C21.1848 11.1998 22.7996 12.8146 22.7996 14.7998C22.7996 16.785 21.1848 18.3998 19.1996 18.3998Z" fill="#61676F"/>
<path d="M19.2002 12C18.3178 12 17.6002 12.7176 17.6002 13.6C17.6002 14.4824 18.3178 15.2 19.2002 15.2C20.0826 15.2 20.8002 14.4824 20.8002 13.6C20.8002 12.7176 20.0826 12 19.2002 12ZM19.2002 14.4C18.759 14.4 18.4002 14.0412 18.4002 13.6C18.4002 13.1588 18.759 12.8 19.2002 12.8C19.6414 12.8 20.0002 13.1587 20.0002 13.6C20.0002 14.0412 19.6414 14.4 19.2002 14.4Z" fill="#61676F"/>
<path d="M20.36 16.0009H18.0392C17.3557 16.0009 16.7996 16.5421 16.7996 17.2069V18.2613C16.7996 18.4041 16.8756 18.5361 16.9992 18.6077C17.6696 18.9957 18.4304 19.2009 19.1996 19.2009C19.9688 19.2009 20.7296 18.9957 21.4 18.6077C21.5236 18.5365 21.5996 18.4041 21.5996 18.2617V17.2073C21.5996 16.5421 21.0436 16.0009 20.36 16.0009ZM20.7996 18.0229C19.804 18.5189 18.5952 18.5189 17.5996 18.0229V17.2073C17.5996 16.9833 17.7968 16.8009 18.0392 16.8009H20.36C20.6024 16.8009 20.7996 16.9833 20.7996 17.2073L20.7996 18.0229Z" fill="#61676F"/>
<path d="M9.60036 15.2013C7.17434 15.2013 5.20035 17.1753 5.20035 19.6013C5.20035 22.0274 7.17434 24.0013 9.60036 24.0013C12.0264 24.0013 14.0004 22.0273 14.0004 19.6013C14.0004 17.1753 12.0264 15.2013 9.60036 15.2013ZM9.60036 23.2013C7.61516 23.2013 6.00036 21.5865 6.00036 19.6013C6.00036 17.6161 7.61516 16.0013 9.60036 16.0013C11.5856 16.0013 13.2004 17.6161 13.2004 19.6013C13.2004 21.5865 11.5856 23.2013 9.60036 23.2013Z" fill="#61676F"/>
<path d="M9.60001 16.8015C8.71759 16.8015 8.00003 17.5191 8.00003 18.4015C8.00003 19.2839 8.71764 20.0015 9.60001 20.0015C10.4824 20.0015 11.2 19.2838 11.2 18.4015C11.2 17.5191 10.4824 16.8015 9.60001 16.8015ZM9.60001 19.2015C9.15883 19.2015 8.8 18.8427 8.8 18.4015C8.8 17.9603 9.15878 17.6015 9.60001 17.6015C10.0412 17.6015 10.4 17.9602 10.4 18.4015C10.4 18.8427 10.0412 19.2015 9.60001 19.2015Z" fill="#61676F"/>
<path d="M10.7608 20.7987H8.43999C7.75641 20.7987 7.20038 21.3399 7.20038 22.0047V23.0591C7.20038 23.2019 7.27636 23.3339 7.39997 23.4055C8.07038 23.7935 8.83116 23.9987 9.60038 23.9987C10.3696 23.9987 11.1304 23.7935 11.8008 23.4055C11.9244 23.3343 12.0004 23.2019 12.0004 23.0595V22.0051C12.0004 21.3399 11.4444 20.7987 10.7608 20.7987ZM11.2004 22.8207C10.2047 23.3167 8.99597 23.3167 8.00035 22.8207V22.0051C8.00035 21.7811 8.19755 21.5987 8.43994 21.5987H10.7607C11.0031 21.5987 11.2003 21.7811 11.2003 22.0051L11.2004 22.8207Z" fill="#61676F"/>
<path d="M4.40002 5.19942C1.974 5.19942 0 7.17341 0 9.59943C0 12.0254 1.974 13.9994 4.40002 13.9994C6.82603 13.9994 8.80003 12.0254 8.80003 9.59943C8.79998 7.17341 6.82598 5.19942 4.40002 5.19942ZM4.40002 13.1994C2.41481 13.1994 0.800016 11.5846 0.800016 9.59943C0.800016 7.61423 2.41481 5.99943 4.40002 5.99943C6.38522 5.99943 8.00002 7.61423 8.00002 9.59943C8.00002 11.5846 6.38522 13.1994 4.40002 13.1994Z" fill="#61676F"/>
<path d="M4.39966 6.80058C3.51724 6.80058 2.79967 7.51819 2.79967 8.40057C2.79967 9.28294 3.51729 10.0006 4.39966 10.0006C5.28209 10.0006 5.99965 9.28294 5.99965 8.40057C5.99965 7.51819 5.28204 6.80058 4.39966 6.80058ZM4.39966 9.20058C3.95847 9.20058 3.59965 8.8418 3.59965 8.40057C3.59965 7.95933 3.95843 7.60055 4.39966 7.60055C4.84085 7.60055 5.19968 7.95933 5.19968 8.40057C5.19968 8.8418 4.84085 9.20058 4.39966 9.20058Z" fill="#61676F"/>
<path d="M5.56042 10.8015H3.23963C2.55605 10.8015 2.00002 11.3427 2.00002 12.0075V13.0619C2.00002 13.2047 2.07601 13.3367 2.19962 13.4083C2.87002 13.7963 3.63081 14.0015 4.40003 14.0015C5.16925 14.0015 5.93003 13.7963 6.60044 13.4083C6.72405 13.3371 6.80003 13.2047 6.80003 13.0623V12.0079C6.80003 11.3427 6.244 10.8015 5.56042 10.8015ZM6.00001 12.8235C5.00443 13.3195 3.79562 13.3195 2.79999 12.8235V12.0079C2.79999 11.7839 2.9972 11.6015 3.23959 11.6015H5.56037C5.80276 11.6015 5.99997 11.7839 5.99997 12.0079L6.00001 12.8235Z" fill="#61676F"/>
<path d="M14.0002 0C11.5742 0 9.60019 1.974 9.60019 4.40002C9.60019 6.82603 11.5742 8.80003 14.0002 8.80003C16.4262 8.80003 18.4002 6.82603 18.4002 4.40002C18.4002 1.974 16.4262 0 14.0002 0ZM14.0002 8.00002C12.015 8.00002 10.4002 6.38522 10.4002 4.40002C10.4002 2.41481 12.015 0.800016 14.0002 0.800016C15.9854 0.800016 17.6002 2.41481 17.6002 4.40002C17.6002 6.38522 15.9854 8.00002 14.0002 8.00002Z" fill="#61676F"/>
<path d="M13.9998 1.60016C13.1174 1.60016 12.3999 2.31777 12.3999 3.20015C12.3999 4.08252 13.1175 4.80013 13.9998 4.80013C14.8822 4.80013 15.5998 4.08257 15.5998 3.20019C15.5998 2.31782 14.8822 1.60016 13.9998 1.60016ZM13.9998 4.00016C13.5587 4.00016 13.1998 3.64138 13.1998 3.20015C13.1998 2.75896 13.5586 2.40013 13.9998 2.40013C14.4411 2.40013 14.7999 2.75891 14.7999 3.20015C14.7998 3.64138 14.441 4.00016 13.9998 4.00016Z" fill="#61676F"/>
<path d="M15.1606 5.59835H12.8398C12.1562 5.59835 11.6002 6.13957 11.6002 6.80435V7.85875C11.6002 8.00153 11.6762 8.13353 11.7998 8.20516C12.4702 8.59314 13.231 8.79836 14.0002 8.79836C14.7694 8.79836 15.5302 8.59314 16.2006 8.20516C16.3242 8.13395 16.4002 8.00153 16.4002 7.85917V6.80477C16.4002 6.13952 15.8442 5.59835 15.1606 5.59835ZM15.6002 7.62035C14.6046 8.11633 13.3958 8.11633 12.4002 7.62035V6.80477C12.4002 6.58075 12.5974 6.39836 12.8398 6.39836H15.1605C15.4029 6.39836 15.6001 6.58075 15.6001 6.80477L15.6002 7.62035Z" fill="#61676F"/>
<path d="M10.3044 4.14087C10.1609 3.97366 9.90844 3.95365 9.74044 4.09727L6.96843 6.46929C6.80043 6.61287 6.78084 6.86529 6.92442 7.03329C7.00364 7.12569 7.11562 7.17331 7.2284 7.17331C7.32042 7.17331 7.41281 7.14172 7.48842 7.07689L10.2604 4.70487C10.4285 4.56129 10.4481 4.30887 10.3044 4.14087Z" fill="#61676F"/>
<path d="M19.12 10.5611L16.72 7.3611C16.5876 7.18392 16.3368 7.14909 16.16 7.28109C15.9832 7.41351 15.9476 7.66429 16.08 7.84068L18.48 11.0407C18.5588 11.1455 18.6788 11.2007 18.8004 11.2007C18.8836 11.2007 18.968 11.1747 19.04 11.1207C19.2168 10.9883 19.2524 10.7375 19.12 10.5611Z" fill="#61676F"/>
<path d="M15.8372 16.1237C15.7048 15.9469 15.454 15.9113 15.2772 16.0437L13.0428 17.7193C12.866 17.8517 12.8304 18.1025 12.9628 18.2789C13.0416 18.3837 13.1616 18.4389 13.2832 18.4389C13.3668 18.4389 13.4508 18.4125 13.5228 18.3589L15.7572 16.6833C15.934 16.5509 15.9696 16.3001 15.8372 16.1237Z" fill="#61676F"/>
<path d="M5.59983 19.1985H2.7998C2.57902 19.1985 2.39981 19.3773 2.39981 19.5985C2.39981 19.8197 2.57902 19.9985 2.7998 19.9985H5.59978C5.82056 19.9985 5.99977 19.8197 5.99977 19.5985C5.99977 19.3773 5.82061 19.1985 5.59983 19.1985Z" fill="#61676F"/>
<path d="M4.39964 0C3.51722 0 2.79961 0.717609 2.79961 1.59998C2.79961 2.48241 3.51722 3.19997 4.39959 3.19997C5.28201 3.19997 5.99958 2.48236 5.99958 1.59998C5.99962 0.717609 5.28201 0 4.39964 0ZM4.39964 2.4C3.95845 2.4 3.59962 2.04122 3.59962 1.59998C3.59962 1.1588 3.9584 0.799969 4.39964 0.799969C4.84082 0.799969 5.19965 1.15875 5.19965 1.59998C5.19961 2.04122 4.84082 2.4 4.39964 2.4Z" fill="#61676F"/>
<path d="M4.39964 2.4C4.17886 2.4 4.00005 2.57953 4.00005 2.80073V5.60071C4.00005 5.82192 4.17925 6.0007 4.40003 6.0007C4.62081 6.0007 4.80001 5.82192 4.80001 5.60071V2.80073C4.80001 2.57953 4.62042 2.4 4.39964 2.4Z" fill="#61676F"/>
</svg>
