<svg width="32" height="32" viewBox="0 0 32 32" fill="none" xmlns="http://www.w3.org/2000/svg">
    <g clip-path="url(#clip0)">
        <circle cx="16" cy="16" r="15.5" fill="white" stroke="#DFE1E5"/>
        <path d="M22.3194 17.2344L17.2304 17.2331L17.2317 22.3221C17.2317 22.6488 17.1019 22.9621 16.8709 23.1931C16.6399 23.424 16.3267 23.5538 16 23.5538C15.6733 23.5538 15.3601 23.424 15.1291 23.1931C14.8981 22.9621 14.7683 22.6488 14.7683 22.3221L14.7696 17.2331L9.68057 17.2344C9.3539 17.2344 9.04062 17.1046 8.80964 16.8736C8.57865 16.6426 8.44888 16.3294 8.44888 16.0027C8.44888 15.676 8.57865 15.3628 8.80964 15.1318C8.92401 15.0174 9.05979 14.9267 9.20922 14.8648C9.35866 14.8029 9.51882 14.771 9.68057 14.771L14.7696 14.7723L14.7683 9.68327C14.7683 9.35661 14.8981 9.04332 15.1291 8.81234C15.2434 8.69797 15.3792 8.60724 15.5287 8.54534C15.6781 8.48344 15.8383 8.45159 16 8.45159C16.1617 8.45159 16.3219 8.48344 16.4713 8.54534C16.6208 8.60724 16.7566 8.69797 16.8709 8.81234C17.1019 9.04332 17.2317 9.35661 17.2317 9.68327L17.2304 14.7723L22.3194 14.771C22.6461 14.771 22.9594 14.9008 23.1904 15.1318C23.4213 15.3628 23.5511 15.676 23.5511 16.0027C23.5511 16.3294 23.4213 16.6426 23.1904 16.8736C22.9594 17.1046 22.6461 17.2344 22.3194 17.2344Z" fill="#25AC85"/>
    </g>
    <defs>
        <clipPath id="clip0">
            <rect width="32" height="32" fill="white"/>
        </clipPath>
    </defs>
</svg>
