<svg width="24" height="24" viewBox="0 0 24 24" fill="none" xmlns="http://www.w3.org/2000/svg">
<path fill-rule="evenodd" clip-rule="evenodd" d="M12 24C18.6274 24 24 18.6274 24 12C24 5.37258 18.6274 0 12 0C5.37258 0 0 5.37258 0 12C0 18.6274 5.37258 24 12 24ZM10.8808 14.3715H13.1099L13.4257 5H10.565L10.8808 14.3715ZM13.082 16.2384C12.8096 15.9721 12.4474 15.839 11.9954 15.839C11.5495 15.839 11.1873 15.9752 10.9087 16.2477C10.6362 16.5139 10.5 16.8514 10.5 17.2601C10.5 17.6687 10.6362 18.0062 10.9087 18.2724C11.1873 18.5387 11.5495 18.6718 11.9954 18.6718C12.4474 18.6718 12.8096 18.5387 13.082 18.2724C13.3607 18.0062 13.5 17.6687 13.5 17.2601C13.5 16.8452 13.3607 16.5046 13.082 16.2384Z" fill="#ED625E"/>
</svg>
