<svg width="72" height="72" viewBox="0 0 72 72" fill="none" xmlns="http://www.w3.org/2000/svg">
<rect width="71.9999" height="72" fill="white"/>
<path d="M35.9773 72C55.6921 72 71.9999 55.6921 71.9999 36.0228C71.9999 16.3079 55.6467 0 35.9773 0C16.2624 0 0 16.3079 0 36.0228C0 55.6921 16.3078 72 35.9773 72Z" fill="#E5E5E7"/>
<path d="M30.6412 28.2418C30.6412 31.6048 33.0199 34.1202 36.0002 34.1476C38.9805 34.1749 41.3866 31.6048 41.3866 28.2418C41.3866 25.1248 38.9805 22.5 36.0002 22.5C33.0199 22.5 30.6412 25.1248 30.6412 28.2418Z" fill="white"/>
<path d="M25.2002 44.8656C25.2002 45.5764 25.5557 46.0686 26.3212 46.0686H45.6792C46.4448 46.0686 46.8002 45.5764 46.8002 44.8656C46.8002 42.5415 43.3552 36.5263 36.0002 36.5263C28.6726 36.5263 25.2002 42.5415 25.2002 44.8656Z" fill="white"/>
</svg>
