<svg width="22" height="22" viewBox="0 0 22 22" fill="none" xmlns="http://www.w3.org/2000/svg">
<path opacity="0.7" d="M13.3506 10.999L20.5173 3.84901C20.8311 3.53517 21.0074 3.10951 21.0074 2.66567C21.0074 2.22184 20.8311 1.79618 20.5173 1.48234C20.2034 1.1685 19.7778 0.992187 19.334 0.992188C18.8901 0.992188 18.4645 1.1685 18.1506 1.48234L11.0006 8.64901L3.85062 1.48234C3.53678 1.1685 3.11112 0.992187 2.66728 0.992188C2.22345 0.992188 1.79779 1.1685 1.48395 1.48234C1.17011 1.79618 0.993796 2.22184 0.993796 2.66567C0.993796 3.10951 1.17011 3.53517 1.48395 3.84901L8.65062 10.999L1.48395 18.149C1.32773 18.3039 1.20374 18.4883 1.11913 18.6914C1.03452 18.8945 0.990952 19.1123 0.990952 19.3323C0.990952 19.5524 1.03452 19.7702 1.11913 19.9733C1.20374 20.1764 1.32773 20.3607 1.48395 20.5157C1.63889 20.6719 1.82322 20.7959 2.02632 20.8805C2.22942 20.9651 2.44726 21.0087 2.66728 21.0087C2.8873 21.0087 3.10514 20.9651 3.30824 20.8805C3.51134 20.7959 3.69568 20.6719 3.85062 20.5157L11.0006 13.349L18.1506 20.5157C18.3056 20.6719 18.4899 20.7959 18.693 20.8805C18.8961 20.9651 19.1139 21.0087 19.334 21.0087C19.554 21.0087 19.7718 20.9651 19.9749 20.8805C20.178 20.7959 20.3623 20.6719 20.5173 20.5157C20.6735 20.3607 20.7975 20.1764 20.8821 19.9733C20.9667 19.7702 21.0103 19.5524 21.0103 19.3323C21.0103 19.1123 20.9667 18.8945 20.8821 18.6914C20.7975 18.4883 20.6735 18.3039 20.5173 18.149L13.3506 10.999Z" fill="white"/>
</svg>
