<svg width="32" height="32" viewBox="0 0 32 32" fill="none" xmlns="http://www.w3.org/2000/svg">
    <circle cx="16" cy="16" r="15.5" fill="white" stroke="#DFE1E5"/>
    <path d="M21.3385 12.4034L17.7391 16.001L21.3385 19.5986C21.5695 19.8295 21.6992 20.1428 21.6992 20.4695C21.6992 20.7962 21.5695 21.1094 21.3385 21.3404C21.1075 21.5714 20.7942 21.7012 20.4675 21.7012C20.1409 21.7012 19.8276 21.5714 19.5966 21.3404L15.999 17.7411L12.4014 21.3404C12.1705 21.5714 11.8572 21.7012 11.5305 21.7012C11.2038 21.7012 10.8906 21.5714 10.6596 21.3404C10.4286 21.1094 10.2988 20.7962 10.2988 20.4695C10.2988 20.3077 10.3307 20.1476 10.3926 19.9981C10.4545 19.8487 10.5452 19.7129 10.6596 19.5986L14.2589 16.001L10.6596 12.4034C10.4286 12.1724 10.2988 11.8591 10.2988 11.5325C10.2988 11.3707 10.3307 11.2106 10.3926 11.0611C10.4545 10.9117 10.5452 10.7759 10.6596 10.6615C10.774 10.5472 10.9097 10.4564 11.0592 10.3945C11.2086 10.3326 11.3688 10.3008 11.5305 10.3008C11.8572 10.3008 12.1705 10.4305 12.4014 10.6615L15.999 14.2609L19.5966 10.6615C19.8276 10.4305 20.1409 10.3008 20.4675 10.3008C20.7942 10.3008 21.1075 10.4305 21.3385 10.6615C21.5695 10.8925 21.6992 11.2058 21.6992 11.5325C21.6992 11.8591 21.5695 12.1724 21.3385 12.4034Z" fill="#ED625E"/>
</svg>
