<svg width="32" height="32" viewBox="0 0 32 32" fill="none" xmlns="http://www.w3.org/2000/svg">
<g clip-path="url(#clip0)">
<circle cx="16" cy="16" r="15.5" fill="white" stroke="#DFE1E5"/>
<path d="M23.173 11.1797L20.5186 8.5253C20.1721 8.19989 19.7182 8.01317 19.243 8.00067C18.7679 7.98817 18.3048 8.15075 17.9417 8.45749L9.22283 17.1763C8.9097 17.4921 8.71472 17.906 8.67064 18.3485L8.25407 22.3883C8.24102 22.5302 8.25943 22.6732 8.30799 22.8071C8.35655 22.9411 8.43407 23.0627 8.53501 23.1633C8.62553 23.2531 8.73289 23.3241 8.85092 23.3723C8.96895 23.4205 9.09534 23.445 9.22283 23.4442H9.31002L13.3498 23.0761C13.7923 23.032 14.2062 22.837 14.522 22.5239L23.2408 13.805C23.5792 13.4475 23.7621 12.9705 23.7494 12.4784C23.7367 11.9863 23.5294 11.5193 23.173 11.1797V11.1797ZM13.1754 21.1386L10.2691 21.4098L10.5307 18.5035L16.0042 13.0979L18.6198 15.7135L13.1754 21.1386ZM19.8792 14.4154L17.2829 11.8191L19.172 9.88157L21.8167 12.5263L19.8792 14.4154Z" fill="#A8ADB5"/>
</g>
<defs>
<clipPath id="clip0">
<rect width="32" height="32" fill="white"/>
</clipPath>
</defs>
</svg>
