<svg width="20" height="20" viewBox="0 0 20 20" fill="none" xmlns="http://www.w3.org/2000/svg">
    <path fill-rule="evenodd" clip-rule="evenodd" d="M10 20C4.47699 20 0 15.523 0 10C0 4.47699 4.47699 0 10 0C15.523 0 20 4.47699 20 10C20 15.523 15.523 20 10 20ZM10 18.75C12.3206 18.75 14.5462 17.8281 16.1872 16.1872C17.8281 14.5462 18.75 12.3206 18.75 10C18.75 7.67936 17.8281 5.45376 16.1872 3.81282C14.5462 2.17187 12.3206 1.25 10 1.25C7.67936 1.25 5.45376 2.17187 3.81282 3.81282C2.17187 5.45376 1.25 7.67936 1.25 10C1.25 12.3206 2.17187 14.5462 3.81282 16.1872C5.45376 17.8281 7.67936 18.75 10 18.75Z" fill="#37C29A"/>
    <path d="M8.75 15.5V8.5H11.25V15.5H8.75Z" fill="#37C29A"/>
    <path d="M11.25 4.5H8.75V7H11.25V4.5Z" fill="#37C29A"/>
</svg>